<svg width="201" height="214" viewBox="0 0 201 214" fill="none" xmlns="http://www.w3.org/2000/svg">
<path d="M0.511719 16.9199H16.8276V52.6502C16.8276 60.1308 10.7634 66.195 3.28276 66.195H0.511719V16.9199Z" fill="url(#paint0_linear_389_555)"/>
<path d="M0.511719 148.318H16.8276V112.588C16.8276 105.108 10.7634 99.0433 3.28276 99.0433H0.511719V148.318Z" fill="url(#paint1_linear_389_555)"/>
<path d="M0.500001 8.70057C0.498139 4.16362 4.15111 0.490234 8.65791 0.490234H65.7601V16.9153C65.7601 16.9153 33.1204 16.9153 16.8125 16.9153C0.504618 16.9153 0.504618 16.9153 0.507286 25.1278C0.509065 30.6032 0.503745 17.8257 0.500001 8.70057Z" fill="#2361DF"/>
<path d="M65.7601 0.490234C83.8476 0.490234 101.432 6.5415 115.731 17.6928C130.03 28.8442 141.995 46.8139 145.692 66.1984L128.963 66.1983C125.347 52.0935 117.178 39.5984 105.739 30.6773C94.2996 21.7563 80.2301 16.9153 65.7601 16.9153V0.490234Z" fill="#2361DF"/>
<path d="M0.500001 156.531C0.498139 161.068 4.15111 164.741 8.65791 164.741H65.7601V148.316C65.7601 148.316 33.1204 148.316 16.8125 148.316C0.504618 148.316 0.504618 148.316 0.507286 140.104C0.509065 134.628 0.503745 147.406 0.500001 156.531Z" fill="url(#paint2_linear_389_555)"/>
<path d="M65.7601 164.741C83.8476 164.741 101.43 158.698 115.729 147.547C130.028 136.395 141.994 118.425 145.69 99.041L128.961 99.0411C125.345 113.146 117.176 125.641 105.737 134.562C94.2978 143.483 80.2301 148.316 65.7601 148.316V164.741Z" fill="url(#paint3_linear_389_555)"/>
<path d="M147.353 124.064L128.998 99.041L145.706 99.0811L156.531 113.156L147.353 124.064Z" fill="#28D9E4"/>
<path d="M147.473 124.06L129.117 99.0371L145.825 99.0772L156.65 113.152L147.473 124.06Z" fill="#28D9E4"/>
<path d="M182.145 124.06L200.5 99.0371L183.792 99.0772L172.967 113.152L182.145 124.06Z" fill="#28D9E4"/>
<path d="M197.836 164.809L165.14 121.244L156.919 132.216L180.692 164.809H197.836Z" fill="url(#paint4_linear_389_555)"/>
<path d="M132.379 164.809L165.074 121.244L173.296 132.216L149.523 164.809H132.379Z" fill="#2361DF"/>
<path d="M168.03 91.2305L167.185 88.8223C166.245 86.1494 164.193 84.045 161.586 83.0812L159.237 82.2146C159.025 82.1363 159.025 81.8285 159.237 81.7502L161.586 80.8835C164.193 79.9197 166.245 77.8152 167.185 75.1425L168.03 72.7342C168.107 72.5169 168.407 72.5169 168.483 72.7342L169.329 75.1425C170.269 77.8153 172.321 79.9197 174.928 80.8835L177.277 81.7502C177.489 81.8285 177.489 82.1363 177.277 82.2146L174.928 83.0812C172.321 84.045 170.269 86.1495 169.329 88.8223L168.483 91.2305C168.407 91.4492 168.107 91.4492 168.03 91.2305Z" fill="url(#paint5_linear_389_555)"/>
<path d="M157.459 97.0214L157.03 95.8026C156.554 94.4502 155.515 93.3839 154.195 92.8953L153.006 92.4553C152.898 92.4148 152.898 92.2596 153.006 92.2204L154.195 91.7804C155.514 91.2918 156.554 90.2269 157.03 88.8731L157.459 87.6543C157.499 87.5436 157.65 87.5436 157.688 87.6543L158.117 88.8731C158.594 90.2255 159.633 91.2918 160.953 91.7804L162.142 92.2204C162.25 92.2609 162.25 92.4161 162.142 92.4553L160.953 92.8953C159.634 93.3839 158.594 94.4488 158.117 95.8026L157.688 97.0214C157.65 97.1335 157.497 97.1335 157.459 97.0214Z" fill="url(#paint6_linear_389_555)"/>
<path d="M157.457 76.3193L157.028 75.1005C156.552 73.7481 155.513 72.6818 154.193 72.1932L153.004 71.7532C152.896 71.7127 152.896 71.5575 153.004 71.5183L154.193 71.0783C155.512 70.5897 156.552 69.5248 157.028 68.171L157.457 66.9522C157.497 66.8415 157.648 66.8415 157.686 66.9522L158.115 68.171C158.592 69.5234 159.631 70.5897 160.951 71.0783L162.14 71.5183C162.248 71.5588 162.248 71.714 162.14 71.7532L160.951 72.1932C159.632 72.6818 158.592 73.7467 158.115 75.1005L157.686 76.3193C157.648 76.43 157.495 76.43 157.457 76.3193Z" fill="url(#paint7_linear_389_555)"/>
<path d="M197.319 206.611V183.028H200.5V206.611H197.319Z" fill="#2361DF"/>
<path d="M190.485 206.611L188.454 201.231H177.255L175.225 206.611H171.943L181.045 183.028H184.699L193.8 206.611H190.485ZM178.338 198.355H187.372L182.872 186.31L178.338 198.355Z" fill="#2361DF"/>
<path d="M158.909 190.131H161.413V205.322C161.413 207.781 160.646 209.755 159.112 211.244C157.601 212.755 155.605 213.51 153.123 213.51C151.499 213.51 149.988 213.082 148.59 212.225C147.191 211.39 146.165 210.285 145.511 208.909L147.913 207.556C148.296 208.571 148.962 209.383 149.909 209.992C150.857 210.623 151.917 210.939 153.09 210.939C154.691 210.939 155.988 210.409 156.981 209.349C157.973 208.289 158.469 206.89 158.469 205.153V203.191H158.402C157.95 204.138 157.229 204.905 156.236 205.492C155.244 206.078 154.161 206.371 152.988 206.371C150.732 206.371 148.917 205.616 147.541 204.104C146.165 202.571 145.477 200.552 145.477 198.048C145.477 195.567 146.165 193.571 147.541 192.059C148.917 190.526 150.732 189.759 152.988 189.759C154.229 189.759 155.345 190.052 156.338 190.638C157.33 191.225 158.018 191.992 158.402 192.939H158.469L158.909 190.131ZM153.496 203.8C154.984 203.8 156.18 203.27 157.082 202.21C158.007 201.15 158.469 199.762 158.469 198.048C158.469 196.334 158.007 194.947 157.082 193.886C156.18 192.826 154.984 192.296 153.496 192.296C151.984 192.296 150.766 192.826 149.841 193.886C148.917 194.947 148.454 196.334 148.454 198.048C148.454 199.762 148.917 201.15 149.841 202.21C150.766 203.27 151.984 203.8 153.496 203.8Z" fill="#2361DF"/>
<path d="M134.933 189.759C136.783 189.759 138.272 190.345 139.4 191.518C140.55 192.691 141.125 194.247 141.125 196.187V206.608H138.181V197.202C138.181 195.781 137.798 194.642 137.031 193.785C136.287 192.905 135.317 192.465 134.121 192.465C132.745 192.465 131.64 192.962 130.805 193.954C129.971 194.924 129.554 196.21 129.554 197.811V206.608H126.61V190.131H129.08L129.554 193.007H129.587C129.948 192.014 130.614 191.225 131.584 190.638C132.554 190.052 133.67 189.759 134.933 189.759Z" fill="#2361DF"/>
<path d="M117.97 185.702V182.014H121.319V185.702H117.97ZM118.173 206.611V190.134H121.116V206.611H118.173Z" fill="#2361DF"/>
<path d="M111.378 190.132H114.694L108.299 206.609H104.543L98.1149 190.132H101.465L106.438 203.733L111.378 190.132Z" fill="#2361DF"/>
<path d="M96.334 204.037H97.0445V206.608H95.4881C94.6761 206.608 94.0107 206.405 93.4919 205.999C92.9731 205.593 92.6573 205.029 92.5445 204.307C91.3264 206.089 89.4091 206.98 86.7926 206.98C85.0558 206.98 83.6685 206.552 82.6309 205.695C81.6159 204.838 81.1084 203.687 81.1084 202.244C81.1084 201.071 81.5482 200.078 82.4279 199.266C83.3076 198.432 84.5031 197.901 86.0144 197.676L91.1911 196.864C91.5971 196.796 91.9129 196.638 92.1385 196.39C92.364 196.119 92.4768 195.792 92.4768 195.409V195.375C92.4768 194.45 92.1385 193.695 91.4618 193.108C90.7851 192.522 89.8941 192.229 88.7888 192.229C87.6159 192.229 86.6234 192.544 85.8114 193.176C85.0219 193.785 84.5595 194.586 84.4242 195.578L81.8189 194.969C82.1347 193.368 82.9129 192.104 84.1535 191.18C85.4167 190.232 86.9731 189.759 88.8227 189.759C90.8528 189.759 92.4543 190.277 93.6272 191.315C94.8227 192.353 95.4204 193.751 95.4204 195.51V203.056C95.4204 203.71 95.7249 204.037 96.334 204.037ZM87.4693 204.713C88.9806 204.713 90.1873 204.274 91.0896 203.394C92.0144 202.492 92.4768 201.307 92.4768 199.841V198.691L86.9618 199.537C86.0821 199.65 85.3715 199.943 84.8302 200.416C84.3114 200.89 84.052 201.465 84.052 202.142C84.052 202.909 84.3565 203.529 84.9655 204.003C85.5971 204.477 86.4317 204.713 87.4693 204.713Z" fill="#2361DF"/>
<path d="M68.7782 206.982C66.1842 206.982 64.0413 206.294 62.3496 204.918C60.6804 203.519 59.7556 201.692 59.5751 199.437L62.5526 198.963C62.6203 200.542 63.2406 201.805 64.4135 202.752C65.609 203.7 67.1428 204.173 69.015 204.173C70.6165 204.173 71.9135 203.813 72.906 203.091C73.8985 202.346 74.3947 201.376 74.3947 200.181C74.3947 199.346 74.0902 198.636 73.4812 198.049C72.8722 197.463 72.0037 197.046 70.8759 196.798L65.6315 195.613C63.8721 195.23 62.5188 194.485 61.5714 193.38C60.6466 192.275 60.1842 190.899 60.1842 189.252C60.1842 187.267 60.9736 185.677 62.5526 184.482C64.1315 183.264 66.218 182.655 68.812 182.655C70.9098 182.655 72.7255 183.207 74.2594 184.313C75.7932 185.418 76.7631 186.873 77.1692 188.677L74.2594 189.591C74.0113 188.35 73.3684 187.358 72.3308 186.613C71.2932 185.846 70.0413 185.463 68.5752 185.463C67.0413 185.463 65.8007 185.813 64.8533 186.512C63.9285 187.211 63.4661 188.125 63.4661 189.252C63.4661 191.012 64.5714 192.151 66.7819 192.67L71.9925 193.888C73.8195 194.316 75.218 195.083 76.188 196.188C77.1804 197.271 77.6767 198.602 77.6767 200.181C77.6767 202.211 76.8534 203.858 75.2067 205.121C73.5827 206.361 71.4398 206.982 68.7782 206.982Z" fill="#2361DF"/>
<path d="M56.2447 198.048V199.401H43.1845C43.365 200.958 43.9289 202.187 44.8762 203.089C45.8236 203.992 47.0529 204.443 48.5642 204.443C49.7146 204.443 50.7296 204.15 51.6093 203.563C52.5116 202.954 53.1432 202.142 53.5041 201.127L55.8387 202.142C55.2973 203.586 54.3612 204.759 53.0304 205.661C51.6996 206.541 50.2108 206.98 48.5642 206.98C46.083 206.98 44.0868 206.191 42.5755 204.612C41.0642 203.033 40.3086 200.947 40.3086 198.353C40.3086 195.781 41.0529 193.706 42.5417 192.127C44.0304 190.548 45.9928 189.759 48.4289 189.759C50.7747 189.759 52.6582 190.526 54.0793 192.059C55.5229 193.571 56.2447 195.567 56.2447 198.048ZM48.3612 192.296C46.895 192.296 45.6996 192.77 44.7747 193.717C43.8499 194.642 43.3086 195.905 43.1507 197.507H53.4026C53.3575 195.905 52.8838 194.642 51.9815 193.717C51.0793 192.77 49.8725 192.296 48.3612 192.296Z" fill="#2361DF"/>
<path d="M34.618 184.687C34.0992 184.687 33.6819 184.833 33.3661 185.126C33.0503 185.397 32.8924 185.781 32.8924 186.277V190.134H37.9V192.705H32.8924V206.611H29.9488V192.705H26.1932V190.134H29.9488V186.243C29.9488 184.935 30.3323 183.908 31.0992 183.164C31.8661 182.397 32.915 182.014 34.2458 182.014H37.9V184.687H34.618Z" fill="#2361DF"/>
<path d="M19.2445 185.702V182.014H22.5942V185.702H19.2445ZM19.4475 206.611V190.134H22.3911V206.611H19.4475Z" fill="#2361DF"/>
<path d="M3.68046 203.633H15.0489V206.611H0.5V183.028H3.68046V203.633Z" fill="#2361DF"/>
<defs>
<linearGradient id="paint0_linear_389_555" x1="8.66965" y1="16.9199" x2="8.66965" y2="66.195" gradientUnits="userSpaceOnUse">
<stop stop-color="#003296"/>
<stop offset="1" stop-color="#2361DF"/>
</linearGradient>
<linearGradient id="paint1_linear_389_555" x1="8.66965" y1="148.318" x2="8.66965" y2="99.0433" gradientUnits="userSpaceOnUse">
<stop stop-color="#003296"/>
<stop offset="1" stop-color="#2361DF"/>
</linearGradient>
<linearGradient id="paint2_linear_389_555" x1="145.69" y1="97.311" x2="135.711" y2="140.686" gradientUnits="userSpaceOnUse">
<stop stop-color="#193A7D"/>
<stop offset="1" stop-color="#2E6AE3"/>
</linearGradient>
<linearGradient id="paint3_linear_389_555" x1="145.69" y1="97.311" x2="135.711" y2="140.686" gradientUnits="userSpaceOnUse">
<stop stop-color="#193A7D"/>
<stop offset="1" stop-color="#2E6AE3"/>
</linearGradient>
<linearGradient id="paint4_linear_389_555" x1="177.377" y1="121.244" x2="177.377" y2="164.809" gradientUnits="userSpaceOnUse">
<stop stop-color="#003296"/>
<stop offset="1" stop-color="#2361DF"/>
</linearGradient>
<linearGradient id="paint5_linear_389_555" x1="168.257" y1="91.3945" x2="168.257" y2="72.5712" gradientUnits="userSpaceOnUse">
<stop stop-color="#003296"/>
<stop offset="1" stop-color="#2361DF"/>
</linearGradient>
<linearGradient id="paint6_linear_389_555" x1="157.574" y1="97.1055" x2="157.574" y2="87.5713" gradientUnits="userSpaceOnUse">
<stop stop-color="#003296"/>
<stop offset="1" stop-color="#2361DF"/>
</linearGradient>
<linearGradient id="paint7_linear_389_555" x1="157.572" y1="76.4023" x2="157.572" y2="66.8691" gradientUnits="userSpaceOnUse">
<stop stop-color="#003296"/>
<stop offset="1" stop-color="#2361DF"/>
</linearGradient>
</defs>
</svg>
